<?xml version="1.0" encoding="utf-8"?>
<!-- Generator: Adobe Illustrator 22.1.0, SVG Export Plug-In . SVG Version: 6.00 Build 0)  -->
<svg version="1.1" id="レイヤー_1" xmlns="http://www.w3.org/2000/svg" xmlns:xlink="http://www.w3.org/1999/xlink" x="0px"
	 y="0px" viewBox="0 0 180 80" style="enable-background:new 0 0 180 80;" xml:space="preserve">
<style type="text/css">
	.st0{fill:#FFFFFF;}
	.st1{fill:#8FC31F;}
	.st2{fill:#67C6F6;}
</style>
<g>
	<title>お薬手帳事業部ロゴ</title>
	<rect x="0.9" class="st0" width="177.9" height="79.9"/>
	<path d="M169.9,36.3l-11.3-13.8l7.4-8.9c0.7-0.8,1.1-1.6,1-2.7c-0.1-2-1.7-2.9-3.3-2.9c-1.3,0-2.2,0.7-3,1.6l-9.4,11.4v-9.3
		c0-2.2-1.4-3.7-3.7-3.7s-3.7,1.5-3.7,3.7v26.4c0,2.2,1.4,3.7,3.7,3.7s3.7-1.5,3.7-3.7v-7l3-3.6l10.3,12.5c1.4,1.7,3.7,2.5,5.4,1
		C171.6,39.7,171.3,37.9,169.9,36.3"/>
	<path d="M130.9,27.9c4-1.6,6.3-5.1,6.3-9.5c0-7.3-5-10.4-11.3-10.4H116c-2.6,0-4.4,1-4.4,4.4v10.7c-1.5,0.2-2.6,0.9-2.6,2.8
		s1.1,2.6,2.6,2.8v8.9c0,2.2,1.5,3.7,3.7,3.7c2.3,0,3.7-1.5,3.7-3.7v-8.3c0-0.4,0.2-0.6,0.7-0.6h4l4.9,9.7c1,2,3.1,3.4,5.2,2.2
		c1.9-1.1,2-2.9,1-4.9L130.9,27.9z M119.8,23c-0.5,0-0.7-0.2-0.7-0.6v-8.1c0-0.4,0.2-0.6,0.7-0.6h3.9c3.7,0,6,1.4,6,4.6
		c0,2.8-2.2,4.6-5.2,4.6L119.8,23z"/>
	<path d="M62.9,8h-9.8c-2.6,0-4.4,1-4.4,4.4v10.7c-1.5,0.2-2.6,0.9-2.6,2.8s1.1,2.6,2.6,2.8v8.9c0,2.2,1.4,3.7,3.7,3.7
		c2.3,0,3.7-1.5,3.7-3.7V29c0.1-0.2,0.3-0.2,0.6-0.2h6.1c7.2,0,11.4-4.4,11.4-10.4C74.2,11.1,69.2,8.1,62.9,8 M61.5,23.1h-4.8
		c-0.2,0-0.4-0.1-0.6-0.2V14c0.1-0.2,0.4-0.2,0.6-0.2h4c3.7,0,6,1.4,6,4.6C66.8,21.2,64.5,23,61.5,23.1"/>
	<path d="M104.5,35.8l-9-24.8c-0.8-2.3-2.3-3-4-3h-1.8c-1.8,0-3,0.9-3.6,2.5l-9.6,25.3c-0.3,0.7-0.7,2-0.7,2.9c0,2,1.4,3.3,3.5,3.3
		c1.8,0,2.8-0.6,3.3-2l1.7-4.8c0.1-0.2,0.3-0.4,0.5-0.4h11.4c0.2,0,0.5,0.1,0.6,0.4l1.7,4.8c0.5,1.5,1.7,2,3.4,2
		c1.9,0,3.5-1.5,3.5-3.3C105.2,37.9,104.7,36.6,104.5,35.8 M90.2,17.2c0.2-0.4,0.5-0.3,0.6,0c0.1,0.3,2.8,8.6,3.7,11.3
		c0,0.1,0,0.1,0,0.2c0,0.3-0.3,0.6-0.6,0.6h-7.1c-0.3,0-0.6-0.3-0.6-0.6c0,0,0,0,0,0c0-0.1,0-0.1,0-0.2
		C87.2,25.9,90.1,17.5,90.2,17.2"/>
	<path class="st1" d="M33.6,35.7H19.4c-0.5,0-0.7-0.2-0.7-0.6v-6.5c0-0.4,0.2-0.6,0.7-0.6h9.3c2,0,3.8-0.6,3.8-3s-1.8-3-3.8-3h-9.3
		c-0.5,0-0.7-0.2-0.7-0.6v-5.7c0-0.4,0.2-0.6,0.7-0.6h13.8c2.2,0,4.1-0.7,4.1-3.1s-1.9-3.1-4.1-3.1H15.8c-2.7,0-4.5,1.1-4.5,4.4v8.9
		c-1.8,0.1-3.2,0.7-3.2,2.9s1.4,2.8,3.2,2.9v9.6c0,3.3,1.7,4.4,4.5,4.4h17.8c2.2,0,4.1-0.7,4.1-3.1C37.7,36.4,35.8,35.7,33.6,35.7"
		/>
	<path class="st2" d="M170.2,73H9.1c-0.5,0-0.9-0.4-0.9-0.9c0,0,0,0,0,0V51c0-0.5,0.4-0.9,0.9-0.9c0,0,0,0,0,0h161.1
		c0.5,0,0.9,0.4,0.9,0.9v21C171.1,72.6,170.7,73,170.2,73"/>
	<path class="st0" d="M55.2,60c0.4-0.1,0.9-0.1,1.3-0.1c3.3,0,5.7,1.5,5.7,4.1s-2.3,4.3-5.1,4.3c-0.7,0-1.2-0.4-1.2-1.1
		c0-0.9,0.7-1,1.5-1.1c1-0.1,2.5-0.6,2.5-2.1c0-2-2.8-2.1-3.6-2.1c-0.4,0-0.8,0-1.2,0.1v3.9c0,0.8,0,1.1-0.2,1.4
		c-0.3,0.6-1.2,1-2.1,1c-2.2,0-3.9-1.6-3.9-3.7c0-2.4,2.3-3.8,4.1-4.3v-1.5l-2.6,0.1c-1.1,0-1.2-0.8-1.2-1c0-1,0.8-1,1.3-1l2.6-0.1
		v-0.5c0-0.8,0-1.7,1-1.7c1,0,1,0.9,1,1.7v0.4l1.6,0c0.6,0,0.7,0,0.9,0.1c0.3,0.2,0.5,0.5,0.5,0.9c0,0.9-0.9,1-1.2,1l-1.9,0.1
		L55.2,60z M53.2,62.5c-1.7,0.5-1.9,1.6-1.9,2c0,0.8,0.6,1.5,1.5,1.6c0,0,0,0,0.1,0c0.3,0,0.4-0.2,0.4-0.7L53.2,62.5z M61.6,60
		c-0.5,0-0.6-0.1-1.4-1.4c-0.4-0.5-0.8-1.1-1.2-1.6c-0.3-0.4-0.4-0.5-0.4-0.8c0-0.5,0.4-1,1-1c0.4,0,0.8,0.2,2,1.8
		c0.3,0.4,1.1,1.5,1.1,1.8C62.7,59.5,62.3,60,61.6,60C61.7,60,61.7,60,61.6,60L61.6,60z"/>
	<path class="st0" d="M75.2,61.6c0,0.4-0.1,0.6-0.8,1.1c-0.4,0.3-1.3,0.8-1.9,0.8s-0.8-0.6-0.8-1c0-0.4,0.2-0.5,0.6-0.7
		c0.5-0.2,1-0.5,1.4-0.9c0.2-0.1,0.4-0.2,0.6-0.2C74.8,60.7,75.1,61.1,75.2,61.6C75.2,61.6,75.2,61.6,75.2,61.6z M79.7,64h4.9
		c0.6,0,1.3,0,1.3,0.8c0,0.8-0.6,0.8-1.3,0.8H82c0.9,0.6,1.9,1,3,1.3c0.4,0,0.8,0.4,0.7,0.9c0,0.5-0.4,0.9-0.9,0.9
		c-1.1,0-4.2-1.7-5.1-2.7v1.5c0,0.7,0,1.3-0.9,1.3c-1,0-1-0.4-1-1.3v-1.5c-1.4,1.4-3.2,2.3-5.2,2.6c-0.5,0-0.9-0.3-0.9-0.8
		c0,0,0,0,0-0.1c0-0.4,0.3-0.7,0.6-0.8c1.1-0.3,2.2-0.7,3.2-1.3h-2.5c-0.6,0-1.3,0-1.3-0.8s0.6-0.8,1.3-0.8h4.8v-0.6h-1
		c-0.7,0-1.2-0.4-1.2-1.1v-2.9c0-0.6,0.4-1.1,1-1.1c0.1,0,0.1,0,0.2,0h0.9c0.4-0.9,0.5-1.1,1-1.1c0.4,0,0.9,0.3,0.9,0.8
		c0,0.1,0,0.2-0.1,0.4h1.3c0.6-0.1,1.1,0.4,1.2,1c0,0.1,0,0.1,0,0.2v2.9c0,0.6-0.4,1.1-1,1.1c-0.1,0-0.1,0-0.2,0h-1.1L79.7,64z
		 M80.5,55.5c0-0.3,0-1,0.8-1c0.9,0,0.9,0.6,0.9,1h2.3c0.5,0,1.2,0,1.2,0.7c0,0.7-0.7,0.7-1.2,0.7h-2.3c0,0.3,0,0.9-0.8,0.9
		c-0.9,0-0.9-0.6-0.9-0.9h-3.6c0,0.4,0,1.1-0.8,1.1c-0.7,0-0.9-0.3-0.9-0.9v-0.1h-2.2c-0.6,0-1.3,0-1.3-0.7c0-0.7,0.7-0.7,1.3-0.7
		h2.2c0-0.3,0-1,0.8-1c0.8,0,0.9,0.5,0.9,1H80.5z M74.1,60.1c-0.4,0-0.7-0.2-1.6-0.8c-0.3-0.2-0.5-0.5-0.5-0.8
		c0-0.5,0.4-0.8,0.8-0.9c0.4,0,1,0.4,1.1,0.5c0.8,0.6,1,0.7,1,1.1C74.9,59.7,74.5,60.1,74.1,60.1C74.1,60.1,74.1,60.1,74.1,60.1
		L74.1,60.1z M80.3,60.2v-0.3c0-0.2-0.1-0.3-0.3-0.3h-2.6c-0.3,0-0.3,0.1-0.3,0.3v0.3L80.3,60.2z M77.1,61.3v0.4
		c0,0.1,0,0.2,0.3,0.2H80c0.2,0,0.3,0,0.3-0.2v-0.4H77.1z M82.3,59.6c0-0.3,0.1-0.5,0.3-0.6c0.3-0.3,1-0.9,1.4-1.3
		c0.1-0.2,0.3-0.2,0.5-0.2c0.5,0,0.9,0.4,0.9,0.8c0,0,0,0,0,0c0,0.3-0.2,0.7-0.9,1.3c-0.9,0.8-1.1,0.9-1.5,0.9
		C82.6,60.4,82.3,60,82.3,59.6z M85.1,63.4c-0.7,0-1.8-0.8-2.2-1.1c-0.3-0.1-0.4-0.4-0.4-0.7c0-0.2,0.3-0.9,0.8-0.9
		c0.3,0,0.4,0,1.3,0.6c0.2,0.1,1,0.5,1.2,0.7c0.1,0.2,0.2,0.4,0.2,0.6C85.8,63.1,85.5,63.4,85.1,63.4z"/>
	<path class="st0" d="M106.7,58.8c0.6,0,1.3,0,1.3,0.9c0,0.9-0.7,0.9-1.3,0.9h-3.6c0.1,0.7,0.1,0.8,0.2,1.8h4.1c0.7,0,1.3,0,1.3,0.8
		c0,0.9-0.5,0.9-1.3,0.9h-3.9c0,0.2,0,0.9,0,1.1c0,2.3-0.5,3.4-2.8,3.4c-1.3,0-2.7-0.4-3-0.6c-0.2-0.1-0.3-0.4-0.3-0.7
		c0-0.5,0.3-0.9,0.8-0.9c0.1,0,0.1,0,0.2,0c0.1,0,0.8,0.2,0.9,0.2c0.3,0.1,0.7,0.1,1,0.1c1.1,0,1.3-0.5,1.3-1.8c0-0.3,0-0.6,0-0.7
		h-5.6c-0.6,0-1.3,0-1.3-0.8c0-0.9,0.5-0.9,1.3-0.9h5.5c-0.1-0.9-0.1-1-0.2-1.8h-4.6c-0.6,0-1.3,0-1.3-0.9s0.7-0.9,1.3-0.9h4.3
		c-0.1-0.5-0.2-1.1-0.3-1.6c-0.7,0-2,0.1-3.5,0.1c-0.6,0-1.3,0-1.3-0.9c0-0.9,0.7-0.8,0.9-0.8c3.9,0,5,0,7.7-0.5
		c0.3-0.1,1.8-0.4,1.9-0.4c0.5,0,0.8,0.3,0.9,0.7c0,0,0,0.1,0,0.1c0,0.6,0,0.9-4.7,1.5c0.1,0.6,0.3,1.4,0.4,1.8L106.7,58.8z"/>
	<path class="st0" d="M124.4,63.4H124c-0.3,0-0.5-0.1-0.7-0.3v2.2c0,0.8-0.5,1.3-1.3,1.3c-0.2,0-0.4,0-0.6-0.1v0.9
		c0,0.5,0,1.3-0.9,1.3s-0.9-0.8-0.9-1.3V58c-0.4,0-0.5,0-0.5,0.5v6.8c0,0.6,0,1.2-0.7,1.2s-0.7-0.6-0.7-1.2v-7.6
		c0-0.7,0.3-1.4,1.3-1.4h0.5v-0.4c0-0.6,0.1-1.3,0.8-1.3s0.9,0.5,0.9,1.3v0.4h0.6c0.9,0,1.3,0.6,1.3,1.4v4.5
		c0.1-0.2,0.4-0.4,0.7-0.3h0.4v-5.4c0-0.9,0.6-1.4,1.6-1.4h4.1c0.6,0,1.3,0,1.3,0.8c0,0.9-0.5,0.9-1.3,0.9h-3.3
		c-0.5,0-0.5,0-0.5,0.6h3.5c0.6,0,1.3,0,1.3,0.8s-0.7,0.8-1.3,0.8h-3.5v0.6h3.6c0.6,0,1.3,0,1.3,0.8s-0.6,0.8-1.3,0.8h-3.6v0.7h4.4
		c0.6,0,1.3,0,1.3,0.8c0,0.8-0.6,0.9-1.3,0.9h-2.3c0.1,0.4,0.3,0.8,0.5,1.2c0.4-0.2,0.7-0.4,0.9-0.5c0.6-0.4,0.7-0.4,0.9-0.4
		c0.5,0,0.8,0.4,0.8,0.9c0,0.4-0.3,0.9-1.6,1.5c0.3,0.3,0.7,0.6,1.2,0.8c0.4,0.2,0.7,0.4,0.7,0.8c0,0.6-0.5,1-1,1c0,0,0,0,0,0
		c-0.4,0-1-0.1-2.1-1.2c0,0.7-0.4,0.8-1,0.9c-1.2,0.2-2.3,0.3-3.5,0.3c-0.4,0-1,0-1-0.9c0-0.8,0.8-0.9,1.3-0.9L124.4,63.4z
		 M122,58.4c0-0.4-0.1-0.4-0.5-0.4v6.4c0.1,0.1,0.3,0.1,0.4,0.1c0.1,0,0.1,0,0.1-0.2V58.4z M126.3,66.8c0.4,0,0.6-0.1,1-0.1
		c0.2,0,0.4-0.1,0.6,0c-0.6-0.9-1.1-2-1.3-3.1h-0.3L126.3,66.8z"/>
</g>
</svg>
